<svg xmlns="http://www.w3.org/2000/svg" width="56" height="56" viewBox="0 0 56 56">
  <defs>
    <style>
      .cls-1 {
        fill-rule: evenodd;
      }
    </style>
  </defs>
  <path id="Forma_1" data-name="Forma 1" class="cls-1" d="M22.66,0H3.34A3.343,3.343,0,0,0,0,3.34V22.66A3.343,3.343,0,0,0,3.34,26H22.66A3.343,3.343,0,0,0,26,22.66V3.34A3.343,3.343,0,0,0,22.66,0ZM24,22.66A1.341,1.341,0,0,1,22.66,24H3.34A1.341,1.341,0,0,1,2,22.66V3.34A1.341,1.341,0,0,1,3.34,2H22.66A1.341,1.341,0,0,1,24,3.34V22.66ZM52.66,0H33.34A3.343,3.343,0,0,0,30,3.34V22.66A3.343,3.343,0,0,0,33.34,26H52.66A3.343,3.343,0,0,0,56,22.66V3.34A3.343,3.343,0,0,0,52.66,0ZM54,22.66A1.341,1.341,0,0,1,52.66,24H33.34A1.341,1.341,0,0,1,32,22.66V3.34A1.341,1.341,0,0,1,33.34,2H52.66A1.341,1.341,0,0,1,54,3.34V22.66ZM22.66,30H3.34A3.343,3.343,0,0,0,0,33.34V52.66A3.343,3.343,0,0,0,3.34,56H22.66A3.343,3.343,0,0,0,26,52.66V33.34A3.343,3.343,0,0,0,22.66,30ZM24,52.66A1.341,1.341,0,0,1,22.66,54H3.34A1.341,1.341,0,0,1,2,52.66V33.34A1.341,1.341,0,0,1,3.34,32H22.66A1.341,1.341,0,0,1,24,33.34V52.66ZM55,42H44V31a1,1,0,0,0-2,0V42H31a1,1,0,0,0,0,2H42V55a1,1,0,0,0,2,0V44H55A1,1,0,0,0,55,42Z"/>
</svg>
